<?xml version="1.0" standalone="no"?>
<!DOCTYPE svg PUBLIC "-//W3C//DTD SVG 20010904//EN"
 "http://www.w3.org/TR/2001/REC-SVG-20010904/DTD/svg10.dtd">
<svg version="1.0" xmlns="http://www.w3.org/2000/svg"
 width="512.000000pt" height="512.000000pt" viewBox="0 0 512.000000 512.000000"
 preserveAspectRatio="xMidYMid meet">
<metadata>
Created by potrace 1.11, written by Peter Selinger 2001-2013
</metadata>
<g transform="translate(0.000000,512.000000) scale(0.100000,-0.100000)"
fill="#000000" stroke="none">
<path d="M453 5046 c-131 -43 -236 -176 -264 -334 -18 -100 9 -216 72 -310
l22 -34 -105 3 c-117 4 -138 -4 -138 -51 0 -46 40 -93 92 -110 l46 -15 4 -455
c1 -250 0 -563 -4 -695 -4 -132 -10 -853 -14 -1601 l-7 -1362 167 -7 c228 -10
505 8 559 37 66 35 -125 85 -423 111 l-145 12 -3 1983 -2 1982 255 0 255 0 0
-1687 c0 -945 5 -1778 10 -1893 10 -213 28 -442 36 -449 12 -13 20 22 24 117
l5 107 235 -1 c129 -1 822 -6 1540 -13 1191 -11 1400 -10 1453 5 16 5 17 -7
17 -149 l0 -155 158 -8 c95 -4 224 -3 327 4 167 11 245 26 252 49 10 30 -191
75 -426 94 -75 6 -142 13 -150 15 -12 4 -13 27 -8 132 4 70 7 961 7 1980 l0
1852 250 0 250 0 0 -1642 c0 -1558 5 -1931 30 -2233 31 -376 51 -81 70 1025
11 642 30 2308 30 2648 l0 202 43 0 c46 0 107 31 107 55 0 19 -23 30 -92 45
-38 7 -58 16 -58 26 0 10 -12 14 -40 14 -22 0 -40 3 -40 6 0 3 14 25 30 49 69
100 89 199 51 246 l-19 24 -49 -50 c-26 -28 -73 -82 -104 -121 -68 -85 -120
-114 -206 -114 -152 1 -261 130 -251 296 15 230 258 343 410 190 24 -23 62
-80 86 -124 57 -107 76 -109 71 -9 -7 127 -84 242 -198 296 -47 22 -70 26
-141 26 -78 0 -90 -3 -148 -34 -112 -61 -190 -176 -211 -311 -15 -91 0 -168
48 -263 l40 -79 -106 4 c-94 2 -106 1 -119 -17 -35 -48 5 -122 79 -145 l47
-15 0 -242 0 -243 -123 0 c-68 0 -172 3 -230 7 l-107 6 0 161 c0 166 -9 224
-36 247 -14 12 -20 9 -39 -14 -37 -47 -75 -200 -75 -305 0 -24 -3 -42 -7 -40
-102 52 -221 106 -289 131 l-87 32 1 200 c1 220 -9 290 -42 290 -49 0 -93
-141 -103 -328 l-6 -119 -31 6 c-90 19 -200 36 -268 42 l-77 7 -3 271 c-3 230
-6 277 -20 309 -10 22 -23 37 -30 35 -19 -6 -34 -116 -47 -328 -7 -102 -14
-209 -17 -237 l-5 -53 -77 0 c-69 0 -223 -18 -308 -35 l-30 -7 0 184 c1 196
-9 258 -43 258 -44 0 -86 -141 -101 -341 -6 -73 -14 -136 -18 -140 -4 -3 -50
-21 -102 -38 -52 -18 -132 -50 -176 -71 l-82 -38 -4 137 c-4 140 -18 196 -48
196 -41 0 -86 -134 -98 -291 l-7 -89 -240 4 c-132 2 -240 4 -241 5 0 0 1 99 4
219 l4 217 42 0 c46 0 106 31 106 55 0 17 -30 31 -102 46 -30 7 -48 16 -48 25
0 10 -13 14 -46 14 l-46 0 26 35 c15 19 41 65 58 101 24 52 29 74 25 110 -11
101 -50 89 -152 -45 -96 -127 -149 -161 -253 -161 -102 0 -196 75 -232 184
-21 63 -9 184 23 239 36 61 91 104 156 124 119 34 217 -23 305 -182 27 -47 54
-84 60 -82 7 2 11 31 10 74 0 57 -6 81 -29 127 -34 68 -108 140 -173 168 -59
26 -171 33 -229 14z m2060 -1303 c-2 -87 -6 -164 -8 -170 -3 -8 -23 -13 -52
-13 -26 0 -97 -7 -158 -16 -60 -8 -129 -18 -152 -21 l-43 -6 0 166 c0 149 2
166 18 171 83 23 226 43 323 45 l77 1 -5 -157z m402 129 l90 -17 3 -169 2
-169 -42 7 c-99 16 -256 36 -290 36 l-38 0 0 171 0 172 93 -7 c50 -4 133 -15
182 -24z m-965 -230 l0 -168 -82 -28 c-46 -16 -131 -50 -191 -76 l-107 -48 2
162 3 161 105 52 c79 40 236 106 268 112 1 1 2 -75 2 -167z m1292 142 c40 -15
124 -51 186 -81 l112 -55 0 -163 0 -164 -93 44 c-52 25 -136 60 -188 79 l-94
34 -3 166 c-1 91 0 166 2 166 3 0 38 -12 78 -26z m-1822 -344 l0 -170 -220 0
-220 0 0 170 0 170 220 0 220 0 0 -170z m2733 65 c4 -58 10 -153 14 -211 l6
-107 -29 6 c-91 20 -272 48 -354 54 l-95 8 -3 165 c-1 90 0 170 2 177 4 10 56
13 229 13 l224 0 6 -105z m-1647 -152 c-3 -21 -10 -195 -15 -388 -5 -192 -10
-361 -10 -374 l-1 -24 -189 5 c-103 3 -194 9 -201 13 -13 8 -10 233 9 630 l6
129 65 13 c96 20 186 30 269 32 l73 1 -6 -37z m407 11 l97 -17 0 -399 0 -400
-207 7 c-115 4 -209 9 -211 10 -2 2 3 16 12 33 28 55 36 156 36 476 l0 319 88
-6 c48 -3 131 -13 185 -23z m-963 -1204 l0 -1140 -209 0 c-116 0 -212 4 -215
9 -3 4 -1 143 4 307 6 165 15 587 21 939 6 352 13 692 16 756 l4 117 87 40
c106 49 258 108 285 111 4 1 7 -512 7 -1139z m1305 1110 c44 -17 126 -54 183
-82 l102 -51 0 -1069 0 -1068 -212 2 -213 3 0 65 c0 36 6 317 14 625 7 308 14
718 16 910 3 371 14 695 24 695 4 0 42 -14 86 -30z m-1835 -1195 l0 -1045
-256 0 -255 0 6 208 c6 196 25 1576 25 1785 l0 97 240 0 240 0 0 -1045z m2732
-29 l-4 -1069 -157 6 c-86 4 -200 7 -255 7 l-98 0 6 77 c8 102 26 842 32 1353
3 223 8 465 12 538 l7 132 190 5 c105 3 208 9 230 13 22 5 40 8 41 8 0 -1 -2
-482 -4 -1070z m-1142 190 l0 -194 -40 14 c-78 27 -178 34 -517 34 l-343 0 0
170 0 170 450 0 450 0 0 -194z m-461 -322 c2 -1 -4 -85 -13 -186 -20 -232 -29
-410 -28 -565 0 -78 -4 -127 -11 -136 -10 -13 -43 -15 -231 -10 l-219 6 6 131
c4 72 10 276 13 453 l7 321 236 -5 c130 -3 238 -7 240 -9z m461 -458 c0 -414
-2 -458 -16 -452 -9 3 -92 6 -185 6 l-169 0 -2 456 -3 455 187 -3 188 -3 0
-459z m-1589 -706 c4 -74 10 -152 14 -172 l7 -38 -231 0 -231 0 0 175 0 175
218 -2 217 -3 6 -135z m530 15 c4 -66 10 -144 14 -172 l8 -53 -243 0 -242 0 5
29 c4 16 9 89 12 163 4 73 8 139 11 146 3 10 51 12 216 10 l213 -3 6 -120z
m537 10 c2 -60 0 -138 -3 -173 l-7 -62 -226 2 c-220 3 -227 4 -225 23 1 11 5
83 8 160 4 77 8 146 11 153 3 10 52 12 221 10 l218 -3 3 -110z m523 5 c4 -58
10 -135 14 -172 l7 -68 -207 0 c-194 0 -207 1 -199 18 4 9 9 82 11 162 2 80 6
151 8 158 4 10 45 12 182 10 l178 -3 6 -105z m532 -22 c4 -68 9 -144 13 -170
l7 -48 -237 0 -237 0 6 148 c3 81 8 157 11 170 4 22 5 22 218 22 l213 0 6
-122z m605 -77 c-2 -110 -6 -202 -9 -205 -3 -3 -50 3 -105 13 -107 21 -288 41
-367 41 l-49 0 6 108 c4 59 9 137 12 175 l6 67 255 0 255 0 -4 -199z"/>
</g>
</svg>
